<svg width="64" height="32" viewBox="0 0 64 32" fill="none" xmlns="http://www.w3.org/2000/svg">
<g clip-path="url(#clip0)">
<path d="M6.63864 19.9743L9.09197 17.4365L6.04209 13.3207L2.15864 7.82619C0.740976 10.245 -0.00428966 12.9988 1.85732e-05 15.8025C1.85732e-05 20.6222 2.15864 24.9379 5.56249 27.8361L10.4921 24.3532C8.80541 23.3041 7.46516 21.7813 6.63864 19.9751V19.9743ZM11.6306 6.63864L14.1685 9.09197L18.2843 6.04209L23.7788 2.15864C21.36 0.740976 18.6061 -0.00428966 15.8025 1.85732e-05C10.9827 1.85732e-05 6.66708 2.15864 3.76891 5.56249L7.25177 10.4921C8.30088 8.80538 9.82362 7.46512 11.6298 6.63864H11.6306ZM22.513 14.1685L25.5629 18.2843L29.4463 23.7788C30.864 21.36 31.6093 18.6061 31.605 15.8025C31.605 10.9827 29.4463 6.66708 26.0425 3.76891L21.1121 7.25177C22.7988 8.30092 24.139 9.82364 24.9655 11.6298L22.5122 14.1685H22.513ZM27.8361 26.0425L24.3532 21.1129C23.3041 22.7996 21.7814 24.1399 19.9751 24.9663L17.4365 22.513L13.3207 25.5629L7.82619 29.4463C10.245 30.864 12.9988 31.6093 15.8025 31.605C20.6222 31.605 24.9379 29.4463 27.8361 26.0425Z" fill="white"/>
<path fill-rule="evenodd" clip-rule="evenodd" d="M40.87 15.5566C40.87 10.4437 43.0065 7.90112 46.3313 7.90112C49.6419 7.90112 51.8203 10.4848 51.8203 15.5566C51.8203 20.6276 49.6412 23.1979 46.3313 23.1979C43.0207 23.1979 40.87 20.6276 40.87 15.5566ZM46.3171 9.55959C43.9151 9.55959 42.7276 11.7838 42.7276 15.5701C42.7276 17.3526 42.9931 18.7345 43.4956 19.7435L48.2166 10.1949C47.6714 9.7666 47.0432 9.55959 46.3171 9.55959ZM44.4595 20.9595C44.9905 21.3601 45.6052 21.5679 46.3313 21.5679C48.7333 21.5679 49.9485 19.3287 49.9485 15.5709C49.9485 13.8294 49.6973 12.4609 49.1805 11.4251L44.4595 20.9595ZM63.7204 12.3234L60.676 17.4355L64.0001 22.9348H61.9608L59.2925 18.4864H58.5387L55.8152 22.9348H53.832L57.1695 17.5051L54.167 12.3227H56.0949L58.5522 16.5372H59.321L61.8351 12.3227H63.7204V12.3234Z" fill="white"/>
</g>
<defs>
<clipPath id="clip0">
<rect width="64" height="31.6049" fill="white"/>
</clipPath>
</defs>
</svg>
