<svg width="41" height="44" viewBox="0 0 41 44" fill="none" xmlns="http://www.w3.org/2000/svg">
<path fill-rule="evenodd" clip-rule="evenodd" d="M27.302 24.204L27.372 24.618L27.395 24.782C27.689 27.061 28.575 27.727 30.775 28.698C30.78 28.7 30.785 28.699 30.789 28.701L38.766 32.215L20.755 42.47V36.6C20.755 34.447 20.885 34.06 22.801 33.004C23.177 32.797 23.558 32.581 23.975 32.344L24.235 32.196C25.428 31.56 26.4 30.621 27.117 29.506C27.143 29.466 27.335 29.177 27.36 29.136C27.2109 29.0546 27.0728 28.9544 26.949 28.838C26.8183 28.7217 26.7069 28.5853 26.619 28.434C25.992 29.652 25.039 30.682 23.819 31.353L23.523 31.521C23.112 31.754 22.693 31.983 22.317 32.189C19.967 33.484 19.78 34.279 19.78 36.601V42.477L1.60202 32.035L9.38102 28.642L9.88702 28.425C10.085 28.329 10.707 28.075 11.187 28.061C11.677 28.031 12.421 28.062 12.822 28.571C13.1925 29.0395 13.5632 29.5078 13.934 29.976C14.792 31.086 15.914 31.993 17.254 32.537C17.2578 32.5396 17.2619 32.542 17.266 32.544C17.619 32.688 17.999 32.771 18.376 32.859C18.454 32.71 18.576 32.537 18.688 32.397C18.769 32.296 18.89 32.171 19.003 32.054C18.433 31.943 17.778 31.762 17.268 31.518L17.266 31.517C16.248 31.034 15.368 30.357 14.692 29.487C14.6589 29.4495 14.6288 29.4093 14.602 29.367C14.533 29.277 14.464 29.189 14.401 29.094C14.221 28.852 13.947 28.491 13.564 28.009C13.307 27.683 12.947 27.468 12.564 27.329L12.565 27.331C12.152 27.183 11.675 27.117 11.154 27.121C10.364 27.147 9.48802 27.567 9.47002 27.575L9.19702 27.693L9.17602 27.701L8.46802 28.006C8.46302 28.007 8.46302 28.012 8.45902 28.014L1.66102 30.98L19.764 2.16001V14.36C19.764 16.468 19.609 16.929 17.676 17.994C17.5228 18.0766 17.3671 18.1543 17.209 18.227L16.959 18.35C16.896 18.378 16.836 18.411 16.775 18.441L16.772 18.442H16.771C14.235 19.657 12.464 22.121 12.31 24.996C12.476 25.041 12.728 25.112 12.869 25.155C12.972 25.185 13.128 25.263 13.259 25.333C13.284 22.676 14.892 20.384 17.215 19.278L17.216 19.277C17.223 19.274 17.228 19.275 17.234 19.272C17.3689 19.2032 17.505 19.1365 17.642 19.072C18.1348 18.8429 18.6078 18.5733 19.056 18.266C19.127 18.22 19.186 18.171 19.251 18.125C19.393 18.022 19.526 17.917 19.642 17.815C19.71 17.756 19.772 17.701 19.815 17.647C20.589 16.864 20.741 15.982 20.741 14.36V2.15501L38.9 31.241L30.885 27.711H30.881C29.103 26.927 28.563 26.271 28.325 24.385C28.321 24.36 28.314 24.295 28.308 24.271C27.85 21.256 25.592 18.837 22.626 17.991L22.226 17.876C22.1761 18.03 22.1097 18.1782 22.028 18.318C21.9379 18.4679 21.8316 18.6074 21.711 18.734L22.084 18.817C24.751 19.467 26.814 21.559 27.302 24.204ZM40.402 31.824L20.675 0.227013C20.6304 0.156938 20.5688 0.0993417 20.4958 0.0596341C20.4229 0.0199266 20.3411 -0.000589441 20.258 1.28902e-05C20.175 -0.000589441 20.0931 0.0199266 20.0202 0.0596341C19.9472 0.0993417 19.8856 0.156938 19.841 0.227013L0.071016 31.697C0.0385252 31.7502 0.0170752 31.8095 0.00794243 31.8712C-0.00119035 31.9329 0.0021807 31.9958 0.017855 32.0561C0.0335293 32.1165 0.0611865 32.1731 0.0991808 32.2225C0.137175 32.272 0.18473 32.3133 0.239016 32.344L20.009 43.702C20.0846 43.745 20.1701 43.7675 20.257 43.7675C20.344 43.7675 20.4294 43.745 20.505 43.702L40.233 32.472C40.2878 32.4409 40.3358 32.3992 40.3745 32.3495C40.4131 32.2997 40.4415 32.2428 40.458 32.182C40.474 32.1217 40.4773 32.0588 40.4676 31.9971C40.458 31.9355 40.4357 31.8765 40.402 31.824Z" fill="black"/>
</svg>
