<svg width="60" height="31" viewBox="0 0 60 31" fill="none" xmlns="http://www.w3.org/2000/svg">
<path d="M57.4625 25.3299L59.7832 23.9401L56.6592 23.9146L53.4141 30.0797H60L57.4625 25.3299Z" fill="white"/>
<path d="M59.4835 7.3062H59.7577L59.9681 6.45825H50.1498L50.3665 7.3062H50.6343C51.7118 7.42096 52.2473 8.07126 51.6353 9.21885L46.5412 19.1264L44.0484 14.2173L46.809 9.00846C47.4465 7.73336 47.6123 7.43371 48.6834 7.31895H48.9958L49.1679 6.471H42.2696L41.1985 8.57492L40.1211 6.471H33.1973L33.3758 7.31895H33.6818C34.7529 7.43371 34.9059 7.73973 35.5944 9.00846L38.355 14.2173L35.8303 19.1264L30.7682 9.22523C30.1306 8.10951 30.6917 7.42096 31.7628 7.31257H32.0305L32.2409 6.46463H21.9636C15.4883 6.46463 10.239 11.7139 10.239 18.1892C10.239 24.6645 15.4883 29.9138 21.9636 29.9138C24.5697 29.9246 27.101 29.0426 29.136 27.4146L29.2508 20.5864H28.3327C27.9885 22.7987 25.4701 24.9728 21.9572 24.9728C19.4806 25.0486 17.159 23.7707 15.8983 21.6377C14.6376 19.5047 14.6376 16.8546 15.8983 14.7216C17.159 12.5886 19.4806 11.3106 21.9572 11.3865C24.5074 11.3865 26.2671 12.26 27.4465 14.0515L35.8303 29.9648L41.1985 19.764L46.5412 29.9648L57.6091 8.99571C58.2212 7.72698 58.3742 7.42096 59.4835 7.3062Z" fill="white"/>
<path d="M4.6095 4.26535V2.20605H4.36723V4.26535C4.36373 5.53853 3.33248 6.56978 2.05929 6.57328H0V6.87293H2.05929C3.33248 6.87644 4.36373 7.90769 4.36723 9.18087V11.4251H4.6095V9.18087C4.613 7.90769 5.64425 6.87644 6.91744 6.87293H9.22537V6.57328H6.91744C5.64425 6.56978 4.613 5.53853 4.6095 4.26535Z" fill="white"/>
<path d="M10.3155 3.40453H10.5132V2.76697C10.5167 2.20961 10.9695 1.75963 11.5269 1.75964H12.1644V1.56838H11.5269C10.967 1.56838 10.5132 1.11453 10.5132 0.55467V0H10.3155V0.55467C10.3155 1.111 9.86454 1.562 9.30821 1.562H8.75354V1.75327H9.30821C9.86454 1.75327 10.3155 2.20427 10.3155 2.7606V3.40453ZM9.78 1.65763C10.0666 1.53507 10.295 1.30672 10.4176 1.02008C10.5384 1.30786 10.7673 1.53677 11.0551 1.65763C10.7685 1.7802 10.5401 2.00855 10.4176 2.29519C10.2967 2.00741 10.0678 1.7785 9.78 1.65763Z" fill="white"/>
</svg>
