<svg width="67" height="32" viewBox="0 0 67 32" fill="none" xmlns="http://www.w3.org/2000/svg">
<path fill-rule="evenodd" clip-rule="evenodd" d="M40.9409 0L25.5637 32H24.4248L39.802 0H40.9409ZM42.9271 10.5931C42.9271 9.69707 43.2689 8.96839 43.9512 8.40809C44.6531 7.84805 45.5539 7.56791 46.6542 7.56791C47.3754 7.56791 48.0678 7.64258 48.7313 7.79192C49.4144 7.94127 50.2108 8.23056 51.1214 8.66056L50.6096 9.61275C49.7751 9.2018 49.0636 8.91251 48.4757 8.74437C47.8872 8.59503 47.2898 8.52035 46.6831 8.52035C45.8674 8.52035 45.2315 8.70728 44.7764 9.08064C44.3025 9.454 44.0652 9.94903 44.0652 10.5652C44.0652 11.1628 44.2546 11.6764 44.6343 12.1059C45.0326 12.5168 45.9146 13.1142 47.2805 13.8985C48.5136 14.6084 49.4049 15.2152 49.9551 15.7193C50.5242 16.2423 50.9413 16.8026 51.207 17.4002C51.4531 17.9978 51.5767 18.7169 51.5767 19.5573C51.5767 21.2194 51.1121 22.5358 50.1829 23.5071C49.2532 24.4595 47.9533 24.9355 46.2847 24.9355C44.6725 24.9355 43.3821 24.4781 42.4147 23.5635C41.4662 22.6666 40.992 21.4625 40.992 19.949C40.992 18.5297 41.3999 17.3723 42.2158 16.476C43.0122 15.5609 44.2925 14.8792 46.0567 14.4309C44.8809 13.7774 44.0652 13.1609 43.6102 12.5819C43.1543 11.9845 42.9271 11.3216 42.9271 10.5931ZM55.6192 8.72575L60.0023 15.5594L64.4424 8.72575H65.6666L60.6288 16.3715L66.0645 24.7174H64.7839L59.9739 17.2679L55.0783 24.7174H53.8266L59.2909 16.3715L54.3385 8.72575H55.6192ZM44.5387 15.8301C43.969 16.1099 43.5129 16.4459 43.1712 16.8374C42.829 17.2106 42.5726 17.6587 42.4018 18.1806C42.212 18.7031 42.117 19.2907 42.117 19.9433C42.117 21.1567 42.4969 22.1265 43.2564 22.8544C44.0157 23.5814 45.0322 23.9455 46.3044 23.9455C47.6145 23.9455 48.631 23.5727 49.3521 22.826C50.0742 22.0607 50.4347 20.9605 50.4347 19.5242C50.4347 18.5539 50.1687 17.7145 49.6369 17.0056C49.1246 16.2967 48.2416 15.6342 46.9882 15.0184C45.9056 15.2797 45.0895 15.5502 44.5387 15.8301ZM7.73947 7.79192C8.42232 7.94127 9.21869 8.23056 10.1296 8.66056L9.61725 9.61275C8.78244 9.2018 8.07121 8.91251 7.48329 8.74437C6.89537 8.59503 6.29765 8.52035 5.69064 8.52035C4.87519 8.52035 4.23954 8.70728 3.78447 9.08064C3.3098 9.454 3.07325 9.94903 3.07325 10.5652C3.07325 11.1628 3.2626 11.6764 3.64233 12.1059C4.04038 12.5168 4.92265 13.1142 6.28836 13.8985C7.52121 14.6084 8.41277 15.2152 8.96251 15.7193C9.53186 16.2423 9.94925 16.8026 10.2147 17.4002C10.4613 17.9978 10.5846 18.7169 10.5846 19.5573C10.5846 21.2194 10.1198 22.5358 9.19056 23.5071C8.26108 24.4595 6.96142 24.9355 5.29233 24.9355C3.68 24.9355 2.39013 24.4781 1.42272 23.5635C0.474153 22.6666 0 21.4625 0 19.949C0 18.5297 0.407859 17.3723 1.22357 16.476C2.02019 15.5609 3.3005 14.8792 5.06478 14.4309C3.88868 13.7774 3.07322 13.1609 2.61765 12.5819C2.16233 11.9845 1.9348 11.3216 1.9348 10.5931C1.9348 9.69707 2.27635 8.96839 2.9592 8.40809C3.66114 7.84805 4.56199 7.56791 5.66224 7.56791C6.38305 7.56791 7.07545 7.64257 7.73947 7.79192ZM3.56316 15.8301C2.99344 16.1099 2.53787 16.4459 2.19568 16.8374C1.854 17.2106 1.59755 17.6587 1.42685 18.1806C1.23677 18.7031 1.14198 19.2907 1.14198 19.9433C1.14198 21.1567 1.52162 22.1265 2.28142 22.8544C3.04069 23.5814 4.05694 23.9455 5.32938 23.9455C6.63952 23.9455 7.65551 23.5727 8.37708 22.826C9.09865 22.0607 9.4597 20.9605 9.4597 19.5242C9.4597 18.5539 9.19369 17.7145 8.66195 17.0056C8.14931 16.2967 7.26606 15.6342 6.013 15.0184C4.93063 15.2797 4.11377 15.5502 3.56316 15.8301ZM24.9532 8.72575L19.5432 18.5284V24.7174H18.3752V18.612L12.9368 8.72575H14.2465L18.9736 17.4639L23.7286 8.72575H24.9532Z" fill="black"/>
</svg>
