<svg width="36" height="26" viewBox="0 0 36 26" fill="none" xmlns="http://www.w3.org/2000/svg">
<path d="M1.66748 2.50474V24.2865C1.66748 24.747 1.2942 25.1203 0.833741 25.1203C0.373279 25.1203 0 24.747 0 24.2865V0.835256C0 0.147848 0.785093 -0.244228 1.33462 0.168743L15.8936 11.1098C16.1032 11.2673 16.2265 11.5141 16.2265 11.7763V24.2865C16.2265 24.747 15.8532 25.1203 15.3927 25.1203C14.9323 25.1203 14.559 24.747 14.559 24.2865V12.1927L1.66748 2.50474Z" fill="white"/>
<path d="M20.7162 12.1927V24.2865C20.7162 24.747 20.3429 25.1203 19.8824 25.1203C19.422 25.1203 19.0487 24.747 19.0487 24.2865V11.7763C19.0487 11.5141 19.172 11.2673 19.3816 11.1098L33.9405 0.168743C34.4901 -0.244228 35.2752 0.147848 35.2752 0.835256V24.2865C35.2752 24.747 34.9019 25.1203 34.4414 25.1203C33.981 25.1203 33.6077 24.747 33.6077 24.2865V2.50474L20.7162 12.1927Z" fill="white"/>
</svg>
